<?xml version="1.0" encoding="utf-8"?>
<!-- Generator: Adobe Illustrator 21.0.0, SVG Export Plug-In . SVG Version: 6.00 Build 0)  -->
<svg version="1.0" id="Layer_1" xmlns="http://www.w3.org/2000/svg" xmlns:xlink="http://www.w3.org/1999/xlink" x="0px" y="0px"
	 viewBox="0 0 227 71" enable-background="new 0 0 227 71" xml:space="preserve">
<g>
	<g>
		<g id="XMLID_1506_">
			<path id="XMLID_1540_" fill="#24572B" d="M79.2,32.3l4.3-7.8h-3.7v-2.5h8.4v0.4L84,30.1h4v2.6h-8.8V32.3z"/>
			<path id="XMLID_1537_" fill="#24572B" d="M92,21.9h4.4l3.4,10.7h-3.6l-0.5-1.8h-3.4l-0.5,1.8h-3.2L92,21.9z M92.9,28.6H95l-1-3.9
				L92.9,28.6z"/>
			<path id="XMLID_1535_" fill="#24572B" d="M100.9,21.9h3.8l3,5.7v-5.7h3v10.7h-3.3l-3.6-6.4v6.4h-3V21.9z"/>
			<path id="XMLID_1532_" fill="#24572B" d="M115.2,21.9h4.4l3.4,10.7h-3.6l-0.5-1.8h-3.4l-0.5,1.8h-3.2L115.2,21.9z M116.1,28.6
				h2.1l-1-3.9L116.1,28.6z"/>
			<path id="XMLID_1530_" fill="#24572B" d="M125.1,24.5h-2.7v-2.6h8.8v2.6h-2.7v8.1h-3.4V24.5z"/>
			<path id="XMLID_1528_" fill="#24572B" d="M131.8,29.2h3.2c0.1,0.7,0.4,1.2,1.5,1.2c0.8,0,1.2-0.4,1.2-0.9c0-0.6-0.4-0.8-1.5-0.9
				c-3.1-0.3-4.1-1.2-4.1-3.5c0-2,1.6-3.4,4.3-3.4c2.7,0,4.1,1.1,4.3,3.4h-3.2c-0.1-0.7-0.4-1-1.2-1c-0.7,0-1.1,0.3-1.1,0.8
				c0,0.5,0.3,0.8,1.5,0.9c2.7,0.3,4.2,1,4.2,3.4c0,2-1.6,3.6-4.4,3.6C133.5,32.8,131.8,31.6,131.8,29.2z"/>
			<path id="XMLID_1526_" fill="#24572B" d="M142.3,21.9h3.4V26l3-4.1h3.5l-3.8,5l4,5.8h-3.9l-2.8-4.3v4.3h-3.4V21.9z"/>
			<path id="XMLID_1523_" fill="#24572B" d="M156,21.9h4.4l3.4,10.7h-3.6l-0.5-1.8h-3.4l-0.5,1.8h-3.2L156,21.9z M156.9,28.6h2.1
				l-1-3.9L156.9,28.6z"/>
			<path id="XMLID_1520_" fill="#24572B" d="M167.6,21.9h4.3c3.1,0,4.4,1.4,4.4,3.7v0.1c0,2.2-1.5,3.5-4.3,3.5h-1v3.5h-3.4V21.9z
				 M171.7,26.9c0.9,0,1.4-0.4,1.4-1.2v-0.1c0-0.8-0.5-1.2-1.3-1.2H171v2.4H171.7z"/>
			<path id="XMLID_1518_" fill="#24572B" d="M177.6,21.9h3.4v10.7h-3.4V21.9z"/>
			<path id="XMLID_1516_" fill="#24572B" d="M182.2,21.9h3.7l2,7.2l2-7.2h3.2l-3.5,10.7h-3.8L182.2,21.9z"/>
			<path id="XMLID_1513_" fill="#24572B" d="M195.5,21.9h4.4l3.4,10.7h-3.6l-0.5-1.8h-3.4l-0.5,1.8h-3.2L195.5,21.9z M196.4,28.6
				h2.1l-1-3.9L196.4,28.6z"/>
			<path id="XMLID_1510_" fill="#24572B" d="M204.4,21.9h4.4c3,0,4.5,1.2,4.5,3.5v0.1c0,1.5-0.8,2.3-1.8,2.8l2.4,4.4h-3.6l-2-3.7
				h-0.5v3.7h-3.4V21.9z M208.6,26.8c0.9,0,1.4-0.4,1.4-1.2v-0.1c0-0.8-0.5-1.1-1.4-1.1h-0.8v2.3H208.6z"/>
			<path id="XMLID_1507_" fill="#24572B" d="M217.6,21.9h4.4l3.4,10.7h-3.6l-0.5-1.8h-3.4l-0.5,1.8h-3.2L217.6,21.9z M218.5,28.6
				h2.1l-1-3.9L218.5,28.6z"/>
		</g>
		<g id="XMLID_1481_">
			<path id="XMLID_1503_" fill="#24572B" d="M79.2,38.2h4.4c3,0,4.5,1.2,4.5,3.5v0.1c0,1.5-0.8,2.4-1.8,2.8l2.5,4.4h-3.6l-2-3.7
				h-0.5V49h-3.4V38.2z M83.5,43.1c1,0,1.4-0.4,1.4-1.2v-0.1c0-0.8-0.5-1.1-1.4-1.1h-0.8v2.3H83.5z"/>
			<path id="XMLID_1500_" fill="#24572B" d="M92.6,38.2h4.5l3.4,10.9h-3.6l-0.5-1.8h-3.4L92.4,49h-3.2L92.6,38.2z M93.5,44.9h2.1
				l-1.1-3.9L93.5,44.9z"/>
			<path id="XMLID_1498_" fill="#24572B" d="M99.5,38.2h3.7l2,7.3l2-7.3h3.2L107,49h-3.9L99.5,38.2z"/>
			<path id="XMLID_1495_" fill="#24572B" d="M113,38.2h4.5l3.4,10.9h-3.6l-0.5-1.8h-3.4l-0.5,1.8h-3.2L113,38.2z M113.9,44.9h2.1
				l-1.1-3.9L113.9,44.9z"/>
			<path id="XMLID_1493_" fill="#24572B" d="M122,38.2h3.9l3.1,5.7v-5.7h3V49h-3.3l-3.6-6.5V49h-3V38.2z"/>
			<path id="XMLID_1491_" fill="#24572B" d="M133.4,43.7v-0.1c0-3.3,2.5-5.5,5.8-5.5c2.6,0,5,1.2,5.2,4.1h-3.4
				c-0.1-0.9-0.7-1.4-1.7-1.4c-1.4,0-2.2,1.1-2.2,2.9v0.1c0,1.6,0.5,2.9,2.3,2.9c1.4,0,1.9-0.7,2-1.4h-1.9V43h5.2v1.4
				c0,2.7-1.8,4.9-5.4,4.9C135.4,49.2,133.4,46.9,133.4,43.7z"/>
			<path id="XMLID_1488_" fill="#24572B" d="M146,38.2h4.4c3,0,4.5,1.2,4.5,3.5v0.1c0,1.5-0.8,2.4-1.8,2.8l2.5,4.4H152l-2-3.7h-0.5
				V49H146V38.2z M150.2,43.1c1,0,1.4-0.4,1.4-1.2v-0.1c0-0.8-0.5-1.1-1.4-1.1h-0.8v2.3H150.2z"/>
			<path id="XMLID_1485_" fill="#24572B" d="M159.3,38.2h4.5l3.4,10.9h-3.6l-0.5-1.8h-3.4l-0.5,1.8h-3.2L159.3,38.2z M160.2,44.9
				h2.1l-1.1-3.9L160.2,44.9z"/>
			<path id="XMLID_1482_" fill="#24572B" d="M168.3,38.2h4.1c3.9,0,5.9,1.9,5.9,5.3v0.1c0,3.5-2,5.5-5.9,5.5h-4.1V38.2z M172.3,46.4
				c1.7,0,2.4-0.8,2.4-2.7v-0.1c0-2-0.7-2.7-2.4-2.7h-0.6v5.6H172.3z"/>
		</g>
	</g>
	<g id="XMLID_1542_">
		<g id="XMLID_1619_">
			<path id="XMLID_1633_" fill="#24572B" d="M6.4,45.9l0.4,1c0.3,0.8,0.1,1.2-0.5,1.4l0,0c-0.6,0.2-1,0-1.3-0.7l-0.1-0.3l-0.9,0.3
				l-0.3-0.8L6.4,45.9z M5.6,47.4c0.1,0.2,0.2,0.3,0.4,0.2l0,0c0.2-0.1,0.2-0.2,0.2-0.4L6.1,47l-0.6,0.2L5.6,47.4z"/>
			<path id="XMLID_1631_" fill="#24572B" d="M14.6,58.6l0.7,0.6l-1.9,2.1l-0.7-0.6L14.6,58.6z"/>
			<path id="XMLID_1629_" fill="#24572B" d="M26.4,65.6l0.9,0.3l0,2l1-1.7l0.8,0.2l-1.6,2.5l-1-0.3L26.4,65.6z"/>
			<path id="XMLID_1626_" fill="#24572B" d="M42.3,66.6l1.1-0.2l1.5,2.6L44,69.1l-0.2-0.4l-0.9,0.2l0,0.5l-0.8,0.2L42.3,66.6z
				 M42.9,68.2l0.5-0.1l-0.5-1L42.9,68.2z"/>
			<path id="XMLID_1623_" fill="#24572B" d="M55.7,60.3l0.9-0.7c0.6-0.5,1.1-0.5,1.5-0.1l0,0c0.3,0.3,0.3,0.6,0.1,0.9l1.2,0.5
				l-0.7,0.6l-1-0.4l-0.1,0.1l0.6,0.7l-0.7,0.6L55.7,60.3z M57.4,60.6c0.2-0.2,0.2-0.3,0.1-0.5l0,0c-0.1-0.2-0.3-0.1-0.5,0l-0.2,0.1
				l0.4,0.5L57.4,60.6z"/>
			<path id="XMLID_1620_" fill="#24572B" d="M65.2,47.6l0.4-1.1l3,0.2l-0.3,0.9l-0.5-0.1l-0.3,0.8l0.4,0.3l-0.3,0.8L65.2,47.6z
				 M67,48l0.2-0.5l-1.1-0.1L67,48z"/>
		</g>
		<g id="XMLID_1594_">
			<path id="XMLID_1616_" fill="#24572B" d="M1.7,35.2l0.1-1.1c0-0.8,0.4-1.2,1-1.1l0,0c0.4,0,0.6,0.2,0.7,0.5l1.2-0.6l0,0.9l-1,0.5
				l0,0.1l1,0.1l0,0.9L1.7,35.2z M3,34.2C3,34,3,33.8,2.7,33.8l0,0c-0.2,0-0.3,0.1-0.3,0.3l0,0.2l0.6,0L3,34.2z"/>
			<path id="XMLID_1613_" fill="#24572B" d="M4.6,22l0.5-1l3,0.4l-0.4,0.9l-0.5-0.1l-0.4,0.8l0.4,0.3L6.8,24L4.6,22z M6.3,22.5
				L6.6,22l-1.1-0.2L6.3,22.5z"/>
			<path id="XMLID_1611_" fill="#24572B" d="M11.2,12.1l0.7-0.7l1.7,1l-1-1.7l0.6-0.6l1.3,2.7l-0.7,0.7L11.2,12.1z"/>
			<path id="XMLID_1608_" fill="#24572B" d="M22.3,4.3l1.1-0.4l1.9,2.3l-0.9,0.4l-0.3-0.4l-0.8,0.3L23.4,7l-0.8,0.3L22.3,4.3z
				 M23.2,5.9l0.5-0.2l-0.7-0.9L23.2,5.9z"/>
			<path id="XMLID_1606_" fill="#24572B" d="M34.4,1.5l1,0L36.2,3l0-1.5l0.8,0l0,2.9l-0.9,0l-1-1.7l0,1.7l-0.8,0L34.4,1.5z"/>
			<path id="XMLID_1604_" fill="#24572B" d="M46.8,4.7L46.8,4.7c0.3-0.8,1.1-1.2,1.9-0.8c0.6,0.2,1.1,0.8,0.8,1.5L48.8,5
				c0.1-0.2,0-0.4-0.3-0.5c-0.3-0.1-0.6,0.1-0.8,0.5l0,0c-0.2,0.4-0.2,0.8,0.3,0.9c0.3,0.1,0.5,0,0.6-0.2l-0.4-0.2l0.2-0.6l1.3,0.5
				l-0.1,0.3c-0.3,0.7-0.9,1-1.8,0.7C46.8,6.2,46.5,5.5,46.8,4.7z"/>
			<path id="XMLID_1601_" fill="#24572B" d="M58.9,10l0.8,0.8c0.6,0.5,0.6,1,0.2,1.5l0,0c-0.3,0.3-0.6,0.3-0.9,0.2l-0.3,1.3
				l-0.7-0.6l0.3-1.1L58.2,12l-0.7,0.7l-0.6-0.6L58.9,10z M58.8,11.7c0.2,0.2,0.3,0.2,0.5,0l0,0c0.1-0.2,0.1-0.3-0.1-0.5l-0.2-0.1
				l-0.4,0.4L58.8,11.7z"/>
			<path id="XMLID_1598_" fill="#24572B" d="M67.1,20.8l0.5,1l-2.2,2L64.9,23l0.4-0.3l-0.4-0.8L64.5,22l-0.4-0.8L67.1,20.8z
				 M65.6,21.8l0.2,0.5l0.8-0.7L65.6,21.8z"/>
			<path id="XMLID_1595_" fill="#24572B" d="M70.4,32.8l0.1,1.1c0.1,1-0.4,1.5-1.3,1.6l0,0c-0.9,0.1-1.5-0.4-1.5-1.4l-0.1-1.1
				L70.4,32.8z M68.3,33.9c0,0.4,0.3,0.6,0.8,0.6l0,0c0.5,0,0.7-0.2,0.7-0.7l0-0.1l-1.5,0.1L68.3,33.9z"/>
		</g>
		<g id="XMLID_1590_">
			<path id="XMLID_1591_" fill="#24572B" d="M36.3,65.1C20.1,65.1,7,51.9,7,35.7S20.1,6.4,36.3,6.4s29.3,13.1,29.3,29.3
				S52.4,65.1,36.3,65.1z M36.3,7.9C20.9,7.9,8.4,20.4,8.4,35.7s12.5,27.9,27.9,27.9s27.9-12.5,27.9-27.9S51.6,7.9,36.3,7.9z"/>
		</g>
		<g id="XMLID_1588_">
			<path id="XMLID_1589_" fill="#24572B" d="M64.6,36.5L64.6,36.5l-56.7,0c-0.4,0-0.7-0.3-0.7-0.7S7.5,35,7.9,35h0l56.7,0
				c0.4,0,0.7,0.3,0.7,0.7S65,36.5,64.6,36.5z"/>
		</g>
		<g id="XMLID_1569_">
			<g id="XMLID_1586_">
				<path id="XMLID_1587_" fill="#24572B" d="M8.5,43.5c-0.3,0-0.6-0.2-0.7-0.5c-0.1-0.4,0.1-0.8,0.5-0.9L36,35.3
					c0.4-0.1,0.8,0.1,0.9,0.5c0.1,0.4-0.1,0.8-0.5,0.9L8.7,43.5C8.7,43.5,8.6,43.5,8.5,43.5z"/>
			</g>
			<g id="XMLID_1584_">
				<path id="XMLID_1585_" fill="#24572B" d="M11.6,50.9c-0.2,0-0.5-0.1-0.6-0.4c-0.2-0.3-0.1-0.8,0.3-1l24.6-14.2
					c0.3-0.2,0.8-0.1,1,0.3c0.2,0.3,0.1,0.8-0.3,1L11.9,50.8C11.8,50.8,11.7,50.9,11.6,50.9z"/>
			</g>
			<g id="XMLID_1582_">
				<path id="XMLID_1583_" fill="#24572B" d="M17.9,58.4c-0.2,0-0.3-0.1-0.5-0.2c-0.3-0.3-0.3-0.7-0.1-1l18.2-21.7
					c0.3-0.3,0.7-0.3,1-0.1c0.3,0.3,0.3,0.7,0.1,1L18.4,58.1C18.3,58.3,18.1,58.4,17.9,58.4z"/>
			</g>
			<g id="XMLID_1580_">
				<path id="XMLID_1581_" fill="#24572B" d="M26.4,63.3c-0.1,0-0.2,0-0.2,0c-0.4-0.1-0.6-0.5-0.4-0.9l9.7-26.6
					c0.1-0.4,0.5-0.6,0.9-0.4c0.4,0.1,0.6,0.5,0.4,0.9l-9.7,26.6C27,63.1,26.7,63.3,26.4,63.3z"/>
			</g>
			<g id="XMLID_1578_">
				<path id="XMLID_1579_" fill="#24572B" d="M36.1,65.1c-0.4,0-0.7-0.3-0.7-0.7V36c0-0.4,0.3-0.7,0.7-0.7s0.7,0.3,0.7,0.7v28.4
					C36.8,64.7,36.5,65.1,36.1,65.1z"/>
			</g>
			<g id="XMLID_1576_">
				<path id="XMLID_1577_" fill="#24572B" d="M46.1,63.3c-0.3,0-0.6-0.2-0.7-0.5l-10-26.6c-0.1-0.4,0-0.8,0.4-0.9
					c0.4-0.1,0.8,0,0.9,0.4l10,26.6c0.1,0.4,0,0.8-0.4,0.9C46.3,63.3,46.2,63.3,46.1,63.3z"/>
			</g>
			<g id="XMLID_1574_">
				<path id="XMLID_1575_" fill="#24572B" d="M54.4,58.6c-0.2,0-0.4-0.1-0.6-0.3L35.6,36.4c-0.3-0.3-0.2-0.8,0.1-1
					c0.3-0.3,0.8-0.2,1,0.1l18.3,21.9c0.3,0.3,0.2,0.8-0.1,1C54.7,58.5,54.5,58.6,54.4,58.6z"/>
			</g>
			<g id="XMLID_1572_">
				<path id="XMLID_1573_" fill="#24572B" d="M61,50.9c-0.1,0-0.2,0-0.4-0.1L35.8,36.6c-0.3-0.2-0.5-0.6-0.3-1
					c0.2-0.3,0.6-0.5,1-0.3l24.8,14.2c0.3,0.2,0.5,0.6,0.3,1C61.5,50.7,61.2,50.9,61,50.9z"/>
			</g>
			<g id="XMLID_1570_">
				<path id="XMLID_1571_" fill="#24572B" d="M64,43.5c-0.1,0-0.1,0-0.2,0L36,36.7c-0.4-0.1-0.6-0.5-0.5-0.9
					c0.1-0.4,0.5-0.6,0.9-0.5l27.9,6.8c0.4,0.1,0.6,0.5,0.5,0.9C64.6,43.3,64.3,43.5,64,43.5z"/>
			</g>
		</g>
		<g id="XMLID_1567_">
			<path id="XMLID_1568_" fill="#24572B" d="M32.5,29.5h-5.4v-1.4L26,27.3h-2.5v-2.9l0.4-0.7l-1.7-4.3H20l-1.6,4.3l0.4,0.7V28
				c0,0.4-0.3,0.7-0.7,0.7s-0.7-0.3-0.7-0.7v-3.3l-0.6-1l2.2-5.9h4.3l2.3,5.9L25,24.8v1.1h1.5l2,1.6v0.7H31v-0.7l1.8-2.1h1.4
				c0.1-1,0.9-1.8,2-1.8s1.9,0.8,2,1.8h1.4l1.8,2.1V28h2.5v-0.5l1.7-1.6h1.8v-1.3l-0.4-1l2.1-5.6l4.3,0l2.2,5.7l-0.6,0.9V28
				c0,0.4-0.3,0.7-0.7,0.7s-0.7-0.3-0.7-0.7v-3.8l0.4-0.7l-1.6-4.1l-2.4,0l-1.5,4.1l0.3,0.7v3.1h-2.7l-0.9,0.8v1.4H40v-1.6l-1-1.2
				h-2.2v-1.2c0-0.3-0.2-0.6-0.6-0.6s-0.6,0.2-0.6,0.6v1.2h-2.2l-1,1.2V29.5z"/>
		</g>
		<g id="XMLID_1563_">
			<path id="XMLID_1564_" fill="#24572B" d="M20.1,36.5h-4.2c-0.8,0-1.5-0.4-2-1.1c-0.4-0.7-0.5-1.5-0.1-2.2l2.1-4.5
				c0.4-0.8,1.2-1.3,2.1-1.3c0.9,0,1.7,0.5,2.1,1.3l2.1,4.5c0.3,0.7,0.3,1.6-0.1,2.2C21.7,36.1,20.9,36.5,20.1,36.5z M18,28.8
				c-0.3,0-0.6,0.2-0.8,0.5l-2.1,4.5c-0.1,0.3-0.1,0.6,0.1,0.8c0.2,0.3,0.4,0.4,0.7,0.4h4.2c0.3,0,0.6-0.1,0.7-0.4
				c0.2-0.3,0.2-0.6,0.1-0.8l-2.1-4.5C18.7,28.9,18.4,28.8,18,28.8z"/>
		</g>
		<g id="XMLID_1559_">
			<path id="XMLID_1560_" fill="#24572B" d="M25.5,36.4h-2c-0.7,0-1.3-0.3-1.7-0.9c-0.4-0.6-0.4-1.3-0.1-1.9l1-2.2
				c0.3-0.7,1-1.2,1.8-1.2s1.5,0.4,1.8,1.2l1,2.2c0.3,0.6,0.2,1.3-0.1,1.9C26.8,36,26.2,36.4,25.5,36.4z M24.5,31.6
				c-0.1,0-0.4,0-0.5,0.3l-1,2.2c-0.1,0.3,0,0.5,0,0.5c0.1,0.1,0.2,0.3,0.5,0.3h2c0.3,0,0.4-0.2,0.5-0.3c0.1-0.1,0.2-0.3,0-0.5
				l-1-2.2C24.9,31.6,24.6,31.6,24.5,31.6z"/>
		</g>
		<g id="XMLID_1555_">
			<path id="XMLID_1556_" fill="#24572B" d="M48.9,36.4h-2c-0.7,0-1.3-0.3-1.7-0.9c-0.4-0.6-0.4-1.3-0.1-1.9l1-2.2
				c0.3-0.7,1-1.2,1.8-1.2s1.5,0.4,1.8,1.2l1,2.2c0.3,0.6,0.2,1.3-0.1,1.9C50.2,36,49.6,36.4,48.9,36.4z M47.9,31.6
				c-0.1,0-0.4,0-0.5,0.3l-1,2.2c-0.1,0.3,0,0.5,0,0.5c0.1,0.1,0.2,0.3,0.5,0.3h2c0.3,0,0.4-0.2,0.5-0.3c0.1-0.1,0.2-0.3,0-0.5
				l-1-2.2C48.3,31.7,48,31.6,47.9,31.6z"/>
		</g>
		<g id="XMLID_1551_">
			<path id="XMLID_1552_" fill="#24572B" d="M56.4,36.5h-4.2c-0.8,0-1.5-0.4-2-1.1c-0.4-0.7-0.5-1.5-0.1-2.2l2.1-4.5
				c0.4-0.8,1.2-1.3,2.1-1.3c0.9,0,1.7,0.5,2.1,1.3l2.1,4.5c0.3,0.7,0.3,1.6-0.1,2.2C57.9,36.1,57.2,36.5,56.4,36.5z M54.3,28.8
				c-0.3,0-0.6,0.2-0.8,0.5l-2.1,4.5c-0.1,0.3-0.1,0.6,0.1,0.8c0.2,0.3,0.4,0.4,0.7,0.4h4.2c0.3,0,0.6-0.1,0.7-0.4
				c0.2-0.3,0.2-0.6,0.1-0.8l-2.1-4.5C54.9,29,54.6,28.8,54.3,28.8z"/>
		</g>
		<g id="XMLID_1547_">
			<path id="XMLID_1548_" fill="#24572B" d="M36.2,20.3c-2.3,0-4.3-1.9-4.3-4.3c0-2.3,1.9-4.3,4.3-4.3c2.3,0,4.3,1.9,4.3,4.3
				C40.4,18.4,38.5,20.3,36.2,20.3z M36.2,13.2c-1.6,0-2.8,1.3-2.8,2.8s1.3,2.8,2.8,2.8c1.6,0,2.8-1.3,2.8-2.8S37.7,13.2,36.2,13.2z
				"/>
		</g>
		<g id="XMLID_1545_">
			
				<path id="XMLID_1546_" fill="none" stroke="#24572B" stroke-width="1.4356" stroke-linecap="round" stroke-linejoin="round" stroke-miterlimit="10" d="
				M53.5,25.3"/>
		</g>
		<g id="XMLID_1543_">
			
				<path id="XMLID_1544_" fill="none" stroke="#24572B" stroke-width="1.4356" stroke-linecap="round" stroke-linejoin="round" stroke-miterlimit="10" d="
				M49,25.3"/>
		</g>
	</g>
</g>
</svg>
