<?xml version="1.0" standalone="no"?>
<!DOCTYPE svg PUBLIC "-//W3C//DTD SVG 20010904//EN"
 "http://www.w3.org/TR/2001/REC-SVG-20010904/DTD/svg10.dtd">
<svg version="1.0" xmlns="http://www.w3.org/2000/svg"
 width="1934.000000pt" height="923.000000pt" viewBox="0 0 1934.000000 923.000000"
 preserveAspectRatio="xMidYMid meet">

<g transform="translate(0.000000,923.000000) scale(0.100000,-0.100000)"
fill="#000000" stroke="none">
<path d="M1837 9212 c-13 -14 -17 -37 -17 -89 0 -63 -36 -190 -385 -1344 -213
-701 -389 -1277 -393 -1280 -26 -22 -363 -338 -389 -365 -24 -24 -31 -38 -25
-52 4 -10 102 -107 218 -216 l212 -198 1 -1018 1 -1019 -41 -33 c-105 -84
-216 -259 -259 -408 -39 -135 -37 -367 5 -471 5 -13 -4 -19 -42 -28 -250 -63
-500 -276 -619 -526 -73 -154 -89 -232 -88 -430 1 -202 16 -274 93 -430 163
-330 468 -532 836 -553 l110 -7 3 -360 c2 -324 4 -361 19 -373 25 -18 17181
-18 17206 1 15 11 17 48 19 372 l3 360 100 7 c289 19 555 161 727 388 64 84
142 244 170 345 18 67 22 108 22 250 1 198 -15 276 -88 430 -119 250 -369 463
-619 526 -38 9 -47 15 -42 28 42 104 44 336 5 471 -41 144 -170 349 -254 403
l-26 17 0 1019 0 1019 225 212 c136 128 225 219 225 230 0 19 -65 85 -309 311
-73 68 -137 133 -141 144 -4 11 -179 587 -389 1280 -322 1065 -381 1270 -381
1322 0 72 -15 93 -55 75 -22 -10 -25 -18 -25 -67 l0 -55 -295 0 -295 0 0 49
c0 70 -37 103 -74 65 -10 -10 -16 -33 -16 -65 l0 -49 -300 0 -300 0 0 55 c0
49 -3 57 -25 67 -38 17 -53 -2 -57 -80 -3 -52 -74 -297 -314 -1084 -170 -560
-312 -1018 -316 -1018 -5 0 -8 7 -8 15 0 9 -13 45 -30 81 -170 375 -589 600
-988 530 -111 -19 -213 -54 -296 -100 l-62 -33 -124 69 c-259 142 -616 312
-920 436 -1060 432 -2237 662 -3391 662 -1727 0 -3406 -488 -4843 -1408 l-149
-96 -16 24 c-72 109 -157 184 -266 237 -172 82 -372 81 -538 -4 -27 -13 -50
-23 -51 -21 -1 2 -113 372 -249 823 -218 721 -248 828 -247 886 0 78 -14 99
-55 81 -22 -10 -25 -18 -25 -67 l0 -55 -302 2 -303 3 3 41 c2 28 -2 47 -16 64
-17 22 -23 23 -46 12 -23 -10 -26 -17 -26 -67 l0 -55 -300 0 -300 0 0 49 c0
72 -37 103 -73 63z m1373 -214 c6 -13 171 -556 368 -1208 198 -652 362 -1195
366 -1207 l7 -23 -1396 0 -1397 0 7 27 c6 24 720 2391 730 2421 3 9 143 12
655 12 l650 0 10 -22z m14264 -25 c20 -60 715 -2360 722 -2390 l6 -23 -1397 0
c-1114 0 -1396 3 -1392 13 2 6 167 552 367 1212 199 660 367 1208 372 1218 8
16 50 17 658 17 l648 0 16 -47z m-7319 -374 c1033 -58 2071 -305 3032 -720
187 -81 776 -373 793 -394 9 -10 -1 -24 -41 -62 -117 -109 -217 -279 -260
-443 -29 -111 -32 -330 -6 -428 9 -35 17 -69 17 -76 0 -7 -24 -20 -54 -29
-155 -49 -283 -194 -318 -360 -7 -31 -15 -56 -18 -54 -141 81 -308 107 -458
72 -162 -38 -328 -170 -397 -316 -36 -78 -65 -175 -65 -221 l0 -28 -445 0
c-434 0 -445 0 -455 -20 -8 -14 -8 -26 0 -40 11 -20 19 -20 493 -18 l481 3 12
86 c14 109 36 173 83 246 159 246 485 312 727 147 50 -34 72 -44 90 -40 22 6
24 12 24 64 0 207 134 374 331 413 78 15 87 27 66 87 -48 136 -61 319 -32 457
69 324 326 581 650 650 39 8 118 15 176 15 333 0 632 -197 769 -506 21 -50 60
-185 60 -213 0 -8 -21 -84 -47 -168 l-46 -153 -219 -226 c-120 -125 -218 -234
-218 -243 0 -10 97 -113 215 -230 l215 -213 0 -214 0 -214 -325 0 -324 0 -3
78 -3 77 -35 0 -35 0 -5 -92 -5 -92 -154 -201 -153 -200 -1548 0 -1548 0 -148
208 c-81 114 -152 210 -158 214 -6 4 -77 8 -158 8 l-148 0 0 187 c0 159 -2
189 -17 205 -20 22 -31 23 -55 1 -13 -12 -18 -31 -18 -75 l0 -59 -127 3 -128
3 -3 363 -2 362 68 0 c45 0 75 5 90 16 41 28 22 74 -30 74 -34 0 -95 24 -121
48 -25 23 -65 103 -116 234 -69 177 -143 269 -253 318 l-45 20 38 41 c127 137
71 372 -105 438 l-51 19 -2 253 c-3 246 -4 255 -24 272 -19 15 -24 16 -43 4
-20 -14 -21 -24 -26 -272 l-5 -258 -45 -15 c-68 -23 -144 -105 -166 -177 -29
-102 -5 -203 66 -274 28 -28 30 -32 13 -37 -156 -52 -233 -148 -337 -424 -54
-143 -82 -171 -198 -195 -38 -7 -47 -43 -18 -67 17 -14 40 -18 96 -18 l74 0
-2 -362 -3 -363 -132 -3 -133 -3 0 60 c0 41 -5 65 -16 75 -20 21 -30 20 -54
-4 -19 -19 -20 -33 -20 -205 l0 -185 -139 0 -140 0 -34 -42 c-19 -24 -89 -121
-156 -216 l-122 -172 -1544 0 -1544 0 -153 197 -153 197 -5 96 -5 95 -29 3
c-38 5 -46 -10 -46 -90 l0 -68 -295 0 -295 0 0 216 0 216 220 216 c121 119
220 224 220 232 0 7 -101 115 -224 240 l-225 225 -119 393 -119 392 31 19
c106 66 283 91 402 56 148 -42 272 -145 336 -276 44 -89 58 -154 58 -259 0
-77 1 -80 25 -86 19 -5 38 3 78 30 136 93 295 98 436 13 148 -89 222 -274 176
-442 -9 -36 -15 -71 -12 -79 3 -8 31 -27 63 -42 83 -39 186 -141 228 -225 45
-90 60 -163 54 -271 -4 -59 -2 -91 6 -97 6 -4 40 -11 76 -14 144 -11 268 -95
332 -224 28 -57 33 -78 36 -162 3 -73 8 -99 20 -109 12 -9 183 -12 773 -12
l758 0 15 22 c13 19 14 25 2 43 -13 20 -20 20 -743 23 l-730 2 -7 66 c-22 218
-192 400 -404 433 l-42 6 -5 85 c-11 223 -119 390 -333 516 -2 1 1 34 7 73 13
97 -1 189 -43 276 -61 128 -163 215 -299 257 -94 28 -225 23 -314 -14 l-63
-25 -5 36 c-3 20 -12 63 -20 96 -8 33 -10 62 -6 65 72 50 340 217 451 282
1515 886 3242 1298 5015 1197z m-442 -1293 c44 -18 94 -77 107 -127 36 -132
-97 -265 -230 -229 -23 6 -59 27 -80 46 -125 113 -45 324 123 324 26 0 62 -6
80 -14z m72 -485 c115 -41 168 -107 247 -308 27 -71 56 -138 64 -150 8 -13 21
-34 30 -48 l16 -25 -511 0 -511 0 29 53 c16 28 49 104 72 167 70 188 146 277
268 314 71 22 230 20 296 -3z m-5623 -508 c92 -92 168 -171 168 -175 0 -4
-797 -8 -1771 -8 -1300 0 -1770 3 -1767 11 2 6 82 85 178 175 l175 163 1424 1
1425 0 168 -167z m14210 35 c78 -73 161 -150 185 -171 23 -21 43 -43 43 -48 0
-5 -712 -9 -1785 -9 -982 0 -1785 3 -1785 6 0 4 77 85 172 180 l172 174 1428
0 1429 0 141 -132z m-9042 -508 l0 -360 -90 0 -90 0 0 360 0 360 90 0 90 0 0
-360z m260 0 l0 -360 -90 0 -90 0 0 360 0 360 90 0 90 0 0 -360z m260 0 l0
-360 -85 0 -85 0 0 360 0 360 85 0 85 0 0 -360z m280 0 l0 -360 -95 0 -95 0 0
360 0 360 95 0 95 0 0 -360z m-5800 207 c0 -2 -75 -78 -167 -170 l-168 -167
-1429 0 -1428 0 -157 146 c-86 81 -167 158 -181 170 l-25 24 1778 0 c977 0
1777 -1 1777 -3z m14249 -14 c0 -5 -77 -79 -170 -165 l-170 -158 -1435 0
-1436 0 -164 156 c-90 86 -164 161 -164 165 0 5 792 9 1770 9 974 0 1770 -3
1769 -7z m-14609 -618 l0 -205 -315 0 -315 0 0 68 c0 37 -4 72 -8 78 -11 17
-35 22 -54 12 -15 -7 -18 -23 -18 -101 l0 -93 -257 -335 -257 -335 -66 33
c-112 57 -182 74 -326 80 -162 7 -248 -10 -379 -71 -203 -97 -349 -258 -419
-464 -25 -73 -46 -185 -46 -246 0 -33 -3 -36 -27 -36 -71 0 -218 -48 -336
-108 -4 -2 -6 272 -5 610 l3 613 132 3 c163 3 157 -2 151 156 -5 128 -18 161
-79 206 -52 37 -113 47 -163 26 -21 -9 -40 -16 -42 -16 -2 0 -4 74 -4 165 l0
165 1415 0 1415 0 0 -205z m14250 39 c0 -154 -1 -166 -17 -159 -10 4 -34 12
-54 17 -80 22 -184 -42 -208 -127 -16 -58 -14 -240 2 -253 8 -7 68 -13 143
-14 l129 -3 3 -618 c1 -340 -1 -617 -5 -615 -136 69 -281 118 -355 118 -25 0
-28 3 -28 36 0 61 -21 173 -46 246 -70 206 -216 367 -419 464 -131 61 -217 78
-379 71 -149 -6 -215 -23 -340 -87 -43 -22 -80 -39 -81 -38 -1 2 -112 145
-246 318 -135 173 -253 326 -262 340 -13 19 -17 47 -17 117 0 78 -3 94 -17
101 -20 10 -44 5 -55 -12 -4 -6 -8 -41 -8 -78 l0 -68 -285 0 -285 0 0 205 0
205 1415 0 1415 0 0 -166z m-7750 -154 l0 -90 -835 0 -835 0 0 90 0 90 835 0
835 0 0 -90z m-9174 -88 c35 -28 44 -56 44 -136 l0 -76 -100 0 -100 0 0 78 c1
44 6 87 14 101 27 49 102 66 142 33z m16890 -16 c33 -33 34 -36 34 -115 l0
-81 -100 0 -100 0 0 86 c0 81 1 87 29 115 42 42 92 40 137 -5z m-13051 -688
c262 -336 479 -618 482 -625 4 -11 -281 -13 -1617 -13 -1209 0 -1621 3 -1618
11 2 7 215 288 473 625 l470 613 666 1 666 0 478 -612z m6125 0 c239 -337 436
-618 438 -625 3 -11 -42 -13 -240 -11 l-243 3 -3 87 c-2 75 -6 89 -22 98 -14
8 -26 8 -40 0 -16 -9 -20 -23 -22 -98 l-3 -87 -295 0 -295 0 -3 184 c-1 113
-7 190 -13 197 -8 10 -52 14 -157 16 l-145 3 -13 38 c-29 82 -116 156 -206
172 -35 7 -40 13 -73 80 -61 128 -154 202 -267 212 -51 5 -66 2 -123 -26 -77
-38 -125 -90 -172 -188 -31 -65 -37 -72 -71 -78 -93 -17 -175 -86 -208 -172
l-17 -43 -141 0 c-77 0 -147 -4 -153 -8 -9 -6 -13 -61 -15 -197 l-3 -190 -287
-3 -288 -2 0 84 c0 76 -2 86 -22 100 -19 13 -25 14 -43 2 -17 -11 -21 -27 -25
-97 l-5 -84 -249 -3 c-224 -2 -248 -1 -242 14 3 8 201 290 439 625 l432 608
1180 1 1180 0 435 -612z m5185 0 c262 -336 479 -618 482 -625 4 -11 -281 -13
-1617 -13 -1209 0 -1621 3 -1618 11 2 7 215 288 473 625 l470 613 666 1 666 0
478 -612z m-8395 181 c0 -3 -129 -188 -288 -410 l-287 -404 -867 -3 -866 -2
-316 405 c-174 223 -316 409 -316 413 0 4 662 7 1470 7 809 0 1470 -3 1470 -6z
m6082 -87 c-38 -48 -180 -232 -316 -410 l-247 -322 -877 2 -876 3 -288 404
c-158 223 -288 407 -288 410 0 3 666 5 1480 3 l1480 -2 -68 -88z m-4393 60
c55 -37 105 -108 133 -191 33 -94 33 -288 0 -376 -105 -285 -341 -289 -454 -7
-20 50 -22 75 -22 197 0 155 12 203 76 300 68 103 180 135 267 77z m-434 -380
c1 -154 36 -268 111 -368 13 -17 24 -34 24 -38 0 -3 -134 -5 -297 -4 l-298 3
0 155 0 155 139 3 c145 3 166 9 166 45 0 43 42 109 88 138 25 16 51 29 56 29
7 0 11 -42 11 -118z m743 91 c42 -27 92 -106 92 -144 0 -32 25 -38 166 -41
l139 -3 0 -155 0 -155 -297 -3 c-164 -1 -298 0 -298 4 0 3 14 25 31 50 72 106
104 216 104 367 0 68 4 107 10 107 6 0 30 -12 53 -27z m-6218 -587 c0 -3 -24
-16 -54 -29 -121 -56 -253 -170 -323 -282 -18 -27 -98 -192 -179 -365 -80
-173 -150 -319 -155 -325 -5 -5 -9 2 -9 18 0 16 -8 30 -19 37 -12 6 -92 10
-191 10 -99 0 -179 -4 -191 -10 -18 -10 -19 -23 -19 -204 0 -148 3 -196 13
-204 7 -7 65 -13 129 -14 l117 -3 -297 -635 c-164 -349 -303 -646 -309 -660
-9 -19 -12 290 -12 1323 l-1 1347 750 0 c413 0 750 -2 750 -4z m1840 -696 l0
-700 -97 -205 c-53 -113 -99 -202 -103 -198 -6 7 -493 1045 -507 1080 -4 10
39 12 181 12 132 -1 191 3 201 11 20 16 22 379 3 398 -8 8 -67 12 -199 12
-160 0 -190 -2 -204 -16 -14 -14 -15 -40 -13 -175 2 -88 1 -159 -2 -159 -3 0
-42 75 -87 168 -45 92 -102 193 -127 224 -64 80 -164 160 -260 207 l-81 40
648 1 647 0 0 -700z m1780 -35 l0 -735 -135 0 c-123 0 -135 -2 -145 -19 -6
-12 -10 -118 -10 -275 0 -319 -13 -296 165 -296 l125 0 0 -427 c0 -236 3 -439
6 -453 5 -17 4 -22 -4 -15 -6 6 -182 376 -391 823 -209 447 -394 832 -410 856
-73 106 -212 198 -339 225 -177 37 -377 -19 -500 -140 l-52 -51 0 621 0 621
845 0 845 0 0 -735z m4320 0 l0 -735 -217 2 -218 3 -5 445 c-5 432 -6 446 -27
485 -53 99 -146 155 -258 155 -112 0 -205 -56 -258 -155 -21 -39 -22 -50 -25
-487 l-3 -448 -174 0 -174 0 -3 438 -3 437 -28 57 c-51 104 -143 158 -266 158
-109 -1 -197 -55 -249 -154 l-27 -51 -3 -442 -3 -443 -174 0 -175 0 0 423 c0
479 -2 492 -70 570 -23 25 -65 58 -95 73 -48 23 -64 26 -132 22 -50 -2 -92
-11 -118 -23 -53 -26 -112 -87 -139 -144 -20 -44 -21 -60 -24 -484 l-3 -437
-172 2 -172 3 -5 445 c-5 432 -6 446 -27 485 -53 99 -146 155 -258 155 -112 0
-205 -56 -258 -155 -21 -39 -22 -50 -25 -487 l-3 -448 -219 0 -220 0 0 735 0
735 2115 0 2115 0 0 -735z m1780 120 c0 -338 -1 -615 -3 -615 -2 0 -24 20 -50
44 -60 55 -166 111 -248 131 -193 45 -385 -9 -524 -149 -83 -84 -36 10 -504
-991 l-361 -770 0 453 0 452 111 0 c61 0 119 5 130 10 18 10 19 24 19 289 0
245 -2 280 -16 285 -9 3 -67 6 -130 6 l-114 0 0 735 0 735 845 0 845 0 0 -615z
m1380 611 c0 -2 -33 -19 -72 -38 -170 -82 -275 -194 -380 -407 l-67 -136 0
135 c-1 92 -5 140 -13 148 -9 9 -68 12 -205 12 -180 0 -193 -1 -203 -19 -6
-12 -10 -95 -10 -199 0 -148 3 -182 15 -192 11 -9 62 -12 185 -11 94 1 170 -1
170 -5 0 -9 -500 -1077 -509 -1087 -4 -4 -51 86 -104 200 l-97 208 0 698 0
697 645 0 c355 0 645 -2 645 -4z m2050 -1325 c0 -731 3 -1336 6 -1345 3 -9 2
-16 -2 -16 -5 0 -17 19 -27 43 -9 23 -147 319 -305 657 l-288 615 77 3 c51 2
81 8 89 17 16 19 16 383 0 399 -7 7 -78 13 -192 16 l-180 5 -127 270 c-160
340 -160 340 -221 416 -66 83 -167 163 -257 207 -40 19 -73 36 -73 38 0 2 338
4 750 4 l750 0 0 -1329z m-11710 829 l0 -130 -125 0 -125 0 0 123 c0 68 3 127
7 130 3 4 60 7 125 7 l118 0 0 -130z m9050 0 l0 -130 -125 0 -125 0 0 130 0
130 125 0 125 0 0 -130z m-5975 21 c51 -23 101 -79 114 -128 6 -21 11 -122 11
-225 l0 -188 -205 0 -205 0 0 188 c0 103 5 204 11 225 22 79 111 147 194 147
22 0 58 -9 80 -19z m959 -18 c78 -55 85 -80 86 -313 l2 -205 -201 -3 -201 -2
0 199 c0 198 0 199 28 252 22 43 38 59 82 82 47 25 63 28 109 23 38 -3 68 -14
95 -33z m877 25 c46 -13 106 -68 125 -114 10 -25 14 -86 14 -234 l0 -200 -200
0 -200 0 0 205 c0 186 2 210 20 245 45 87 143 128 241 98z m944 -7 c51 -23
101 -79 114 -128 6 -21 11 -122 11 -226 l0 -187 -202 2 -203 3 -3 183 c-1 107
2 200 8 223 22 80 111 149 195 149 22 0 58 -9 80 -19z m-8095 -633 c0 -56 -6
-97 -17 -125 l-18 -43 -112 0 -113 0 0 125 0 125 130 0 130 0 0 -82z m13430
-43 l0 -126 -72 3 -71 3 -58 123 -58 122 130 0 129 0 0 -125z m-7992 -133 l2
-182 -202 2 -203 3 -3 170 c-1 93 0 175 3 182 3 11 47 13 202 11 l198 -3 3
-183z m923 3 l0 -180 -200 -3 -201 -2 0 185 0 185 201 -2 200 -3 0 -180z m929
0 l0 -185 -200 0 -200 0 0 185 0 185 200 0 200 0 0 -185z m928 -3 l2 -182
-202 2 -203 3 -3 170 c-1 93 0 175 3 182 3 11 47 13 202 11 l198 -3 3 -183z
m-3798 -472 l0 -210 -100 0 -100 0 0 210 0 210 100 0 100 0 0 -210z m290 0 l0
-210 -100 0 -100 0 0 203 c0 112 3 207 7 210 3 4 48 7 100 7 l93 0 0 -210z
m288 -2 l2 -208 -100 0 -100 0 0 210 0 211 98 -3 97 -3 3 -207z m287 0 l0
-203 -102 -3 -103 -3 0 204 c0 112 2 206 4 208 2 2 49 3 103 2 l98 -1 0 -204z
m285 2 l0 -210 -100 0 -100 0 0 203 c0 112 2 206 4 208 3 2 48 5 100 7 l96 2
0 -210z m288 -2 l2 -208 -100 0 -100 0 0 210 0 211 98 -3 97 -3 3 -207z m290
-3 l2 -206 -100 3 -101 3 0 203 c0 111 1 203 1 205 0 1 44 1 97 0 l98 -1 3
-207z m282 3 l0 -208 -100 0 -100 0 0 203 c0 112 2 206 4 208 3 2 48 4 100 4
l96 0 0 -207z m290 2 l0 -210 -100 0 -100 0 0 210 0 210 100 0 100 0 0 -210z
m288 -5 l2 -205 -100 0 -100 0 0 208 0 207 97 -2 98 -2 3 -206z m282 13 c0
-109 1 -201 3 -205 1 -5 -44 -9 -100 -11 l-103 -3 0 204 c0 112 2 206 4 208 2
2 47 4 100 4 l96 0 0 -197z m290 -8 l0 -210 -100 0 -100 0 0 203 c0 112 3 207
7 210 3 4 48 7 100 7 l93 0 0 -210z m288 -5 l2 -205 -100 0 -100 0 0 210 0
211 98 -5 97 -5 3 -206z m290 0 l2 -206 -102 3 -103 3 -3 195 c-1 107 -1 199
1 205 3 6 43 9 103 8 l99 -1 3 -207z m282 5 l0 -210 -100 0 -100 0 0 203 c0
112 3 207 7 210 3 4 48 7 100 7 l93 0 0 -210z m290 0 l0 -210 -100 0 -100 0 0
210 0 210 100 0 100 0 0 -210z m278 -2 l2 -208 -90 0 -90 0 0 210 0 211 88 -3
87 -3 3 -207z m-268 -1118 l0 -820 -195 0 -195 0 0 310 c0 287 -1 313 -21 364
-27 73 -96 148 -167 183 -50 24 -69 28 -147 28 -78 0 -97 -4 -146 -28 -66 -32
-132 -99 -162 -165 -21 -45 -22 -64 -25 -369 l-3 -323 -240 0 -239 0 0 418 c0
462 -5 505 -62 622 -46 94 -160 206 -258 253 -168 79 -340 77 -509 -5 -82 -40
-195 -150 -239 -234 -64 -123 -65 -135 -70 -616 l-3 -438 -239 0 -239 0 -3
323 -3 322 -28 56 c-32 66 -99 132 -165 162 -67 31 -207 31 -274 0 -66 -30
-133 -96 -165 -162 l-28 -56 -3 -322 -3 -323 -200 0 -199 0 0 820 0 820 2115
0 2115 0 0 -820z m-2024 439 c124 -23 252 -108 320 -215 54 -84 74 -159 74
-274 l0 -100 -480 0 -480 0 0 88 c0 186 74 333 215 426 110 74 224 98 351 75z
m-1400 -464 c63 -19 126 -72 156 -133 22 -46 23 -56 26 -354 l3 -308 -255 0
-256 0 0 288 c0 342 4 367 80 443 72 72 151 92 246 64z m2773 -1 c39 -11 67
-29 101 -64 75 -75 80 -100 80 -442 l0 -288 -256 0 -255 0 3 308 c3 298 4 308
26 354 29 59 92 114 152 133 60 18 86 18 149 -1z m-9631 -466 l2 -328 -175 0
-175 0 0 330 0 330 173 -2 172 -3 3 -327z m342 2 l0 -330 -130 0 -130 0 0 330
0 330 130 0 130 0 0 -330z m410 0 l0 -330 -160 0 -160 0 0 330 0 330 160 0
160 0 0 -330z m15170 0 l0 -330 -170 0 -170 0 0 330 0 330 170 0 170 0 0 -330z
m348 -3 l2 -328 -132 3 -133 3 -3 315 c-1 173 0 321 3 328 3 10 35 12 132 10
l128 -3 3 -328z m462 3 l0 -330 -190 0 -190 0 0 323 c0 178 3 327 7 330 3 4
89 7 190 7 l183 0 0 -330z m-8610 -35 l0 -295 -215 0 -215 0 0 295 0 295 215
0 215 0 0 -295z m530 0 l0 -295 -220 0 -220 0 0 295 0 295 220 0 220 0 0 -295z
m-7706 -9 c78 -109 188 -201 309 -256 l62 -29 -237 -1 -238 0 0 238 1 237 29
-64 c16 -34 49 -91 74 -125z m14548 -48 c-2 -128 -4 -234 -6 -235 -2 -2 -106
-2 -231 -1 l-229 3 90 44 c74 37 105 60 185 140 82 82 102 109 140 188 24 50
46 92 49 92 3 1 4 -103 2 -231z m-9530 -90 c-2 -79 -5 -144 -6 -146 -2 -1 -66
-1 -142 0 l-139 3 55 31 c30 18 77 54 104 80 49 48 116 143 116 164 0 5 3 10
8 10 4 0 6 -64 4 -142z m4435 98 c31 -63 130 -165 204 -209 l64 -37 -147 0
-147 0 -3 145 c-2 80 -1 145 3 145 3 0 15 -20 26 -44z"/>
<path d="M2390 7705 l-130 -195 0 -178 c0 -184 4 -202 42 -202 40 0 49 38 48
203 l-2 154 98 147 c53 80 100 146 103 146 3 -1 52 -68 109 -149 l102 -149 0
-164 c0 -114 4 -168 12 -176 19 -19 46 -14 63 12 14 21 16 52 13 193 l-3 168
-124 175 c-149 210 -148 210 -177 210 -20 0 -47 -35 -154 -195z"/>
<path d="M2490 7300 l0 -170 65 0 65 0 0 170 0 170 -65 0 -65 0 0 -170z"/>
<path d="M16782 7883 c-12 -10 -77 -99 -146 -197 l-126 -180 0 -172 c0 -182 5
-204 49 -204 37 0 41 19 41 188 l0 164 100 144 c56 79 104 144 108 144 4 -1
51 -64 105 -141 l97 -140 0 -164 c0 -172 6 -195 49 -195 37 0 41 19 41 203 l0
179 -126 180 c-162 229 -155 222 -192 191z"/>
<path d="M16740 7300 l0 -170 65 0 65 0 0 170 0 170 -65 0 -65 0 0 -170z"/>
<path d="M6402 7228 c-33 -33 -15 -53 165 -183 97 -70 187 -132 199 -137 20
-9 41 3 171 97 191 139 233 173 233 190 0 17 -27 45 -44 45 -7 0 -88 -54 -180
-121 l-166 -121 -168 121 c-93 67 -175 121 -183 121 -8 0 -20 -5 -27 -12z"/>
<path d="M11242 6728 c-34 -34 -21 -48 231 -228 139 -100 160 -112 180 -102
37 17 370 266 381 285 14 22 -3 51 -31 55 -12 2 -83 -44 -192 -123 -103 -75
-177 -122 -184 -118 -7 4 -86 60 -176 125 -90 65 -171 118 -180 118 -9 0 -22
-5 -29 -12z"/>
<path d="M8245 6267 c-11 -6 -86 -59 -167 -119 -82 -59 -153 -108 -158 -108
-6 0 -82 52 -170 116 -127 91 -166 115 -187 112 -24 -3 -28 -8 -28 -33 0 -27
16 -41 184 -162 100 -73 191 -133 201 -133 20 0 370 252 383 276 19 33 -23 71
-58 51z"/>
<path d="M1937 5310 c-41 -13 -95 -56 -114 -93 -21 -41 -31 -243 -14 -276 12
-21 16 -21 184 -19 l172 3 0 141 c0 137 -1 141 -27 176 -45 58 -135 89 -201
68z m102 -94 c38 -20 51 -55 51 -141 l0 -75 -100 0 -100 0 0 76 c0 41 5 85 11
97 28 54 83 71 138 43z"/>
<path d="M2675 5305 c-50 -18 -100 -71 -114 -122 -16 -58 -14 -238 3 -252 9
-8 66 -11 182 -9 l169 3 3 129 c2 122 1 130 -23 172 -43 73 -141 108 -220 79z
m131 -109 c33 -33 34 -36 34 -115 l0 -81 -100 0 -100 0 0 86 c0 81 1 87 29
115 42 42 92 40 137 -5z"/>
<path d="M16565 5308 c-47 -17 -91 -54 -109 -92 -13 -28 -16 -60 -14 -163 l3
-128 172 -3 c209 -3 197 -12 191 153 -3 88 -8 119 -24 146 -42 72 -147 114
-219 87z m111 -96 c35 -28 44 -56 44 -136 l0 -76 -100 0 -100 0 0 78 c1 44 6
87 14 101 27 49 102 66 142 33z"/>
<path d="M17318 5311 c-42 -14 -84 -48 -109 -88 -19 -31 -24 -54 -27 -148 -6
-165 -18 -156 191 -153 l172 3 0 141 c0 137 -1 141 -27 176 -44 58 -136 89
-200 69z m101 -95 c38 -20 51 -55 51 -141 l0 -75 -100 0 -100 0 0 76 c0 41 5
85 11 97 28 54 83 71 138 43z"/>
<path d="M3800 4805 l-185 -115 -5 -153 -5 -152 -139 -5 c-118 -4 -141 -8
-150 -22 -8 -13 -8 -23 0 -35 10 -17 54 -18 684 -18 630 0 674 1 684 18 8 12
8 22 0 35 -9 14 -32 18 -150 22 l-139 5 -5 152 -5 153 -185 115 c-101 63 -191
115 -200 115 -8 0 -98 -52 -200 -115z m355 -72 l156 -97 -3 -125 -3 -126 -112
-3 -113 -3 0 91 0 90 -90 0 -89 0 -3 -87 -3 -88 -100 0 -100 0 -3 125 -2 125
152 96 c84 53 154 97 155 98 2 1 73 -43 158 -96z"/>
<path d="M15110 4805 l-185 -115 -5 -153 -5 -152 -139 -5 c-118 -4 -141 -8
-150 -22 -8 -13 -8 -23 0 -35 10 -17 54 -18 684 -18 630 0 674 1 684 18 8 12
8 22 0 35 -9 14 -32 18 -150 22 l-139 5 -5 152 -5 153 -185 115 c-101 63 -191
115 -200 115 -8 0 -98 -52 -200 -115z m355 -72 l156 -97 -3 -125 -3 -126 -105
0 -105 0 -3 88 -3 87 -89 0 -90 0 0 -90 0 -91 -107 3 -108 3 -3 125 -2 125
152 96 c84 53 154 97 155 98 2 1 73 -43 158 -96z"/>
<path d="M6185 4345 c-19 -18 -25 -35 -25 -65 0 -79 82 -118 144 -69 22 17 26
28 26 69 0 41 -4 52 -26 69 -37 29 -89 27 -119 -4z"/>
<path d="M6915 4345 c-56 -55 -18 -155 60 -155 51 0 85 36 85 90 0 81 -89 121
-145 65z"/>
<path d="M12289 4357 c-45 -34 -50 -92 -13 -136 20 -25 34 -31 64 -31 30 0 44
6 64 31 15 17 26 43 26 59 0 16 -11 42 -26 59 -20 24 -34 31 -62 31 -21 0 -44
-6 -53 -13z"/>
<path d="M13012 4350 c-88 -82 24 -214 115 -136 37 32 39 93 4 130 -31 33 -87
35 -119 6z"/>
<path d="M2702 3488 c-15 -15 -17 -394 -2 -403 13 -8 387 -8 400 0 15 9 13
388 -2 403 -17 17 -379 17 -396 0z m326 -200 l3 -128 -131 0 -130 0 0 123 c0
68 3 127 7 131 4 3 61 5 127 4 l121 -3 3 -127z"/>
<path d="M6046 3484 c-13 -13 -16 -45 -16 -193 0 -127 4 -182 13 -194 11 -16
34 -18 200 -18 133 -1 192 3 202 11 20 16 22 379 3 398 -8 8 -67 12 -199 12
-157 0 -190 -3 -203 -16z m324 -194 l0 -130 -125 0 -125 0 0 123 c0 68 3 127
7 130 3 4 60 7 125 7 l118 0 0 -130z"/>
<path d="M6770 3481 c-6 -12 -10 -95 -10 -199 0 -144 3 -182 14 -191 10 -9 71
-12 201 -12 130 0 191 3 201 12 19 15 21 378 2 397 -9 9 -68 12 -205 12 -180
0 -193 -1 -203 -19z m330 -191 l0 -130 -125 0 -125 0 0 123 c0 68 3 127 7 130
3 4 60 7 125 7 l118 0 0 -130z"/>
<path d="M12142 3488 c-15 -15 -17 -394 -2 -403 13 -8 387 -8 400 0 15 9 14
387 -2 403 -17 17 -379 17 -396 0z m326 -200 l3 -128 -131 0 -130 0 0 123 c0
68 3 127 7 131 4 3 61 5 127 4 l121 -3 3 -127z"/>
<path d="M12872 3488 c-15 -15 -17 -394 -2 -403 13 -8 387 -8 400 0 15 9 14
387 -2 403 -17 17 -379 17 -396 0z m326 -200 l3 -128 -131 0 -130 0 0 123 c0
68 3 127 7 131 4 3 61 5 127 4 l121 -3 3 -127z"/>
<path d="M16132 3488 c-14 -14 -17 -375 -3 -396 6 -11 51 -14 201 -13 106 0
197 4 202 9 5 5 9 96 9 202 0 149 -3 195 -13 201 -22 14 -382 11 -396 -3z
m326 -201 l3 -128 -128 3 -128 3 -3 114 c-1 63 0 121 2 128 4 11 33 13 128 11
l123 -3 3 -128z"/>
</g>
</svg>
